<?xml version="1.0" encoding="UTF-8" standalone="no"?><!DOCTYPE svg PUBLIC "-//W3C//DTD SVG 1.1//EN" "http://www.w3.org/Graphics/SVG/1.1/DTD/svg11.dtd"><svg width="100%" height="100%" viewBox="0 0 1000 1000" version="1.1" xmlns="http://www.w3.org/2000/svg" xmlns:xlink="http://www.w3.org/1999/xlink" xml:space="preserve" xmlns:serif="http://www.serif.com/" style="fill-rule:evenodd;clip-rule:evenodd;stroke-linejoin:round;stroke-miterlimit:2;"><path id="svg_1" d="M909.187,557.533c-1.163,4.519 -1.266,7.825 -2.654,10.501c-10.103,19.474 -3.663,32.884 11.916,48.115c32.218,31.497 36.378,83.922 13.208,120.46c-24.482,38.608 -70.19,56.528 -115.788,43.857c-14.242,-3.958 -23.13,-0.922 -33.181,9.231c-44.614,45.068 -97.91,77.191 -159.828,94.347c-16.641,4.611 -23.008,12.904 -26.108,28.491c-7.808,39.25 -31.786,65.306 -71.838,76.321c-56.435,15.519 -113.779,-17.037 -125.022,-73.188c-4.261,-21.28 -12.723,-31.945 -34.851,-38.554c-56.269,-16.805 -104.836,-47.624 -146.779,-87.749c-9.112,-8.717 -16.494,-11.706 -29.776,-7.937c-48.836,13.856 -98.629,-6.973 -122.157,-49.214c-23.062,-41.404 -13.555,-91.469 24.772,-124.813c6.827,-5.94 8.357,-10.656 6.254,-18.826c-16.863,-65.49 -16.966,-131 2.027,-196.082c3.725,-12.766 -6.195,-16.44 -12.415,-22.464c-46.219,-44.763 -44.975,-111.221 4.063,-150.51c28.108,-22.52 60.812,-27.475 95.203,-16.492c12.018,3.838 19.328,1.761 28.529,-6.55c46.925,-42.382 100.698,-73.543 163.028,-89.633c10.507,-2.712 16.288,-6.93 19.1,-19.035c11.377,-48.985 49.811,-80.118 96.101,-80.526c55.175,-0.486 89.739,25.498 104.348,78.997c2.393,8.765 6.924,13.685 16.124,15.865c67.789,16.061 126.741,47.945 176.367,95.543c10.527,10.097 20.258,3.957 30.007,1.801c49.304,-10.906 102.751,14.849 119.658,60.807c14.411,39.173 7.686,75.768 -23.199,106.271c-6.998,6.911 -12.313,12.824 -9.603,23.912c13.416,54.898 14.389,110.155 2.494,167.053m-338.382,96.942c52.162,-1.021 104.32,-2.275 156.487,-2.874c11.046,-0.127 18.25,-3.4 21.626,-13.916c3.746,-11.666 -6.706,-13.575 -13.071,-17.132c-81.087,-45.317 -162.677,-89.789 -243.437,-135.645c-24.831,-14.099 -47.914,-28.16 -75.639,-7.517c-0.921,0.686 -2.443,0.883 -3.675,0.857c-11.243,-0.244 -14.709,7.314 -18.023,15.908c-16.526,42.847 -33.64,85.481 -49.889,128.425c-3.627,9.585 -9.819,18.731 -8.936,31.892c77.127,0 153.934,0 234.557,0.003m42.559,176.273c50.036,-15.877 92.981,-42.801 130.252,-78.708c7.875,-7.587 11.404,-14.132 5.765,-25.77c-14.956,-30.865 -14.172,-31.191 -50.177,-29.801c-7.64,0.295 -15.294,0.316 -22.942,0.356c-96.88,0.506 -193.761,0.961 -290.641,1.543c-8.406,0.051 -17.356,-1.513 -25.717,4.647c26.958,28.03 53.567,54.66 78.805,82.468c9.673,10.658 18.354,13.616 32.806,10.014c38.451,-9.584 74.135,-2.743 101.239,26.781c11.839,12.896 22.634,16.031 40.61,8.471m134.925,-366.228c-23.312,-29.459 -46.478,-59.028 -70.057,-88.284c-4.771,-5.92 -8.57,-14.097 -19.724,-10.758c-61.707,18.476 -123.526,36.598 -188.943,55.915c14.289,8.213 25.057,14.594 36.007,20.664c81.906,45.403 165.332,88.45 245.055,137.224c32.285,19.752 57.308,10.61 88.91,1.028c-30.81,-39.068 -60.218,-76.36 -91.249,-115.79m-327.986,-290.754c-9.649,-18.286 -23.796,-17.418 -41.488,-11.422c-44.646,15.131 -83.917,38.299 -119.106,68.822c-11.429,9.913 -16.032,18.994 -8.661,33.534c4.979,9.822 6.675,21.289 5.589,32.651c-0.796,8.33 2.477,13.945 10.403,17.897c28.914,14.416 57.442,29.569 86.441,43.819c16.44,8.079 41.917,-3.074 47.221,-20.222c11.725,-37.906 21.946,-76.301 35.119,-113.717c7.367,-20.926 6.272,-36.948 -15.518,-51.361m-143.757,415.419c4.493,13.819 8.987,27.639 14.932,45.924c20.387,-51.799 38.671,-99.216 57.792,-146.311c6.613,-16.287 10.394,-31.19 -1.924,-46.795c-5.406,-6.848 -6.257,-16.148 -5.435,-24.987c0.921,-9.902 -3.317,-15.908 -12.591,-20.414c-22.192,-10.784 -43.62,-23.076 -65.97,-33.519c-7.392,-3.453 -15.476,-15.521 -24.728,-4.593c-9.437,11.147 -26.437,17.039 -19.085,39.28c20.583,62.269 37.796,125.591 57.009,191.416m319.321,-318.594c-9.882,-12.127 -20.873,-23.563 -29.4,-36.532c-14.878,-22.628 -30.586,-38.409 -62.233,-27.758c-11.273,3.794 -18.953,5.544 -22.397,17.746c-11.432,40.509 -23.838,80.759 -35.937,121.09c-2.86,9.533 -5.918,18.046 3.678,26.975c9.188,8.548 17.576,4.669 26.339,2.079c41.946,-12.399 83.808,-25.069 125.659,-37.771c11.294,-3.428 23.625,-4.415 34.127,-12.765c-9.996,-19.347 -25.928,-33.889 -39.835,-53.064m72.208,-92.371c-19.968,-9.758 -40.757,-17.462 -62.433,-22.692c-9.224,-2.226 -17.358,-0.771 -23.172,8.166c-4.709,7.238 -5.215,13.264 0.415,20.202c31.541,38.867 62.903,77.872 94.27,116.872c5.222,6.492 11.646,9.361 20.062,7.286c22.591,-5.569 47.295,-8.555 46.84,-40.032c-0.067,-4.611 2.694,-9.585 5.153,-13.842c5.784,-10.013 2.311,-17.063 -5.618,-24.339c-21.946,-20.136 -46.736,-36.211 -75.517,-51.623m-430.863,433.991c-5.907,-19.525 -11.885,-39.03 -17.708,-58.578c-13.769,-46.224 -27.389,-92.49 -41.269,-138.683c-2.221,-7.392 -2.666,-17.022 -13.691,-17.604c-12.128,-0.641 -11.603,9.851 -13.507,16.979c-13.835,51.786 -12.792,103.769 -1.168,155.783c1.902,8.511 6.079,15.037 15.877,16.015c26.352,2.632 48.472,13.564 67.246,31.552c5.819,5.575 5.423,0.724 4.22,-5.464m500.294,-233.678c39.208,49.818 78.415,99.637 119.359,151.662c9.17,-41.604 5.502,-79.739 -1.867,-118.053c-2.496,-12.975 -9.583,-18.003 -21.722,-18.624c-31.361,-1.603 -55.11,-16.527 -74.41,-39.571c-13.905,-16.602 -19.607,-16.908 -38.531,-2.334c1.744,10.205 10.074,16.674 17.171,26.92m-322.482,454.308c2.572,-3.808 1.151,-7.235 -1.562,-10.07c-37.262,-38.932 -74.422,-77.959 -112.079,-116.527c-6.619,-6.78 -36.1,-6.69 -41.777,-1.373c-7.215,6.756 -11.696,34.911 -5.484,41.155c44.225,44.456 96.147,76.023 160.903,86.815l0,-0Z" style="fill:#4caf50;fill-rule:nonzero;"/></svg>