<svg xmlns="http://www.w3.org/2000/svg" viewBox="0 0 640 640">
<path d="
M325.960541,513.565857
	C325.656525,514.780762 325.629547,515.669556 325.266632,516.388916
	C322.625336,521.624207 324.309021,525.229126 328.382111,529.323547
	C336.805359,537.790771 337.892914,551.884277 331.835236,561.706909
	C325.434418,572.085938 313.484528,576.903442 301.563049,573.497009
	C297.839630,572.433105 295.515778,573.249146 292.888153,575.978516
	C281.224060,588.094055 267.290131,596.729675 251.101913,601.341858
	C246.751083,602.581482 245.086685,604.810791 244.276031,609.000977
	C242.234711,619.552673 235.965836,626.557251 225.494415,629.518250
	C210.739838,633.690247 195.747467,624.938171 192.808121,609.843140
	C191.694168,604.122314 189.481781,601.255371 183.696564,599.478760
	C168.985367,594.960938 156.287598,586.676086 145.322006,575.889343
	C142.939621,573.545837 141.009796,572.742554 137.537140,573.755615
	C124.769119,577.480530 111.751038,571.881042 105.599762,560.525452
	C99.570427,549.394958 102.055923,535.935730 112.076385,526.971863
	C113.861359,525.375122 114.261398,524.107300 113.711395,521.910950
	C109.302673,504.305176 109.275780,486.694305 114.241272,469.198151
	C115.215263,465.766296 112.621658,464.778687 110.995537,463.159241
	C98.911804,451.125488 99.237152,433.259644 112.057739,422.697662
	C119.406349,416.643677 127.956734,415.311584 136.948074,418.264130
	C140.090088,419.295868 142.001389,418.737488 144.406937,416.503418
	C156.675201,405.109955 170.734039,396.732849 187.029831,392.407410
	C189.776917,391.678223 191.288284,390.544495 192.023315,387.290375
	C194.997833,374.121674 205.046036,365.752197 217.148392,365.642578
	C231.573608,365.511902 240.610275,372.497162 244.429657,386.879425
	C245.055389,389.235748 246.239944,390.558472 248.645172,391.144409
	C266.368134,395.462067 281.781036,404.033539 294.755310,416.829315
	C297.507629,419.543823 300.051727,417.893036 302.600433,417.313385
	C315.490814,414.381500 329.464233,421.305115 333.884521,433.660004
	C337.652191,444.190796 335.894104,454.028778 327.819336,462.228851
	C325.989807,464.086792 324.600220,465.676453 325.308624,468.657043
	C328.816162,483.415283 329.070465,498.270111 325.960541,513.565857
M237.492157,539.626648
	C251.129547,539.352295 264.766205,539.015076 278.404938,538.854004
	C281.292755,538.819885 283.176270,537.939880 284.059021,535.113037
	C285.038300,531.976990 282.305847,531.463684 280.641632,530.507324
	C259.441956,518.324829 238.110672,506.369385 216.996384,494.041870
	C210.504486,490.251587 204.469528,486.471527 197.221054,492.020996
	C196.980240,492.205383 196.582306,492.258484 196.260300,492.251312
	C193.320816,492.185699 192.414764,494.217621 191.548157,496.527924
	C187.227539,508.046387 182.753128,519.507690 178.504807,531.052368
	C177.556610,533.629089 175.937805,536.087830 176.168518,539.625793
	C196.333054,539.625793 216.413849,539.625793 237.492157,539.626648
M248.619049,587.014221
	C261.700684,582.745972 272.928406,575.507996 282.672668,565.855225
	C284.731506,563.815735 285.654205,562.056213 284.179840,558.927490
	C280.269684,550.630127 280.474762,550.542542 271.061340,550.916199
	C269.063812,550.995422 267.062836,551.001221 265.063293,551.011963
	C239.734375,551.148071 214.405411,551.270325 189.076645,551.426758
	C186.879013,551.440369 184.538986,551.019897 182.353180,552.675903
	C189.401123,560.211243 196.358109,567.370178 202.956436,574.845642
	C205.485428,577.710815 207.755081,578.505981 211.533310,577.537598
	C221.586060,574.960999 230.915543,576.800171 238.001846,584.737061
	C241.097031,588.203796 243.919342,589.046692 248.619049,587.014221
M283.894409,488.561279
	C277.799652,480.641907 271.742859,472.692749 265.578400,464.828033
	C264.330963,463.236603 263.337799,461.038269 260.421722,461.936035
	C244.288742,466.902863 228.126511,471.774597 211.023636,476.967529
	C214.759445,479.175354 217.574615,480.890900 220.437515,482.522705
	C241.851395,494.728363 263.662689,506.300781 284.505768,519.412720
	C292.946625,524.722595 299.488617,522.264893 307.750916,519.689148
	C299.695801,509.186432 292.007111,499.161438 283.894409,488.561279
M198.144089,410.398010
	C195.621323,405.482300 191.922668,405.715454 187.297348,407.327332
	C175.624954,411.394989 165.357620,417.623108 156.157684,425.828644
	C153.169647,428.493652 151.966309,430.934753 153.893280,434.843628
	C155.195007,437.484161 155.638412,440.566681 155.354553,443.621216
	C155.146454,445.860626 156.002213,447.370117 158.074265,448.432343
	C165.633774,452.307800 173.092239,456.381500 180.673813,460.212219
	C184.972092,462.384033 191.632782,459.385925 193.019577,454.775879
	C196.085022,444.585480 198.757248,434.263977 202.201263,424.205292
	C204.127426,418.579681 203.841064,414.272491 198.144089,410.398010
M160.559464,522.074890
	C161.734238,525.789978 162.909012,529.505066 164.463425,534.420715
	C169.793488,520.495544 174.573776,507.748535 179.572754,495.087921
	C181.301559,490.709412 182.290176,486.703003 179.069794,482.508026
	C177.656494,480.667023 177.433960,478.167084 177.648880,475.790741
	C177.889648,473.128754 176.781570,471.514282 174.356949,470.302734
	C168.554993,467.403595 162.952621,464.099091 157.109375,461.291901
	C155.176895,460.363495 153.063141,457.119446 150.644424,460.057037
	C148.177063,463.053711 143.732635,464.637573 145.654663,470.616577
	C151.035873,487.356262 155.536346,504.379120 160.559464,522.074890
M244.044388,436.427338
	C241.460800,433.167358 238.587189,430.092834 236.357788,426.606354
	C232.467911,420.523193 228.361191,416.280853 220.087326,419.144226
	C217.140060,420.164215 215.132050,420.634552 214.231705,423.914978
	C211.242844,434.805115 207.999268,445.625488 204.836182,456.467590
	C204.088531,459.030243 203.288910,461.319000 205.797821,463.719208
	C208.199951,466.017242 210.393005,464.974487 212.683990,464.278168
	C223.650635,460.944977 234.595200,457.538879 245.536865,454.124207
	C248.489655,453.202728 251.713425,452.937225 254.459152,450.692566
	C251.845642,445.491516 247.680420,441.582092 244.044388,436.427338
M262.922791,411.595276
	C257.702179,408.972076 252.267029,406.901001 246.599915,405.495117
	C244.188232,404.896820 242.061722,405.287964 240.541733,407.690308
	C239.310608,409.636139 239.178223,411.256012 240.650345,413.121246
	C248.896683,423.569824 257.096100,434.055481 265.296844,444.539917
	C266.662048,446.285278 268.341614,447.056458 270.542053,446.498718
	C276.448273,445.001709 282.906982,444.198914 282.788025,435.736908
	C282.770569,434.497314 283.492279,433.160095 284.135132,432.015869
	C285.647430,429.324036 284.739380,427.428802 282.666229,425.472961
	C276.928436,420.059814 270.447418,415.738281 262.922791,411.595276
M150.275726,528.265076
	C148.731277,523.016235 147.168488,517.772644 145.646057,512.517456
	C142.046143,500.091064 138.485382,487.653259 134.856522,475.235352
	C134.275787,473.248077 134.159439,470.659424 131.277054,470.502838
	C128.106369,470.330566 128.243591,473.151154 127.745773,475.067261
	C124.128799,488.988953 124.401428,502.963562 127.440292,516.946411
	C127.937538,519.234436 129.029694,520.988708 131.591278,521.251831
	C138.480881,521.959351 144.264008,524.898315 149.172379,529.734070
	C150.693619,531.232727 150.590164,529.928589 150.275726,528.265076
M281.075134,465.445404
	C291.325745,478.838043 301.576324,492.230682 312.281006,506.216583
	C314.678467,495.032318 313.719452,484.780396 311.792908,474.480286
	C311.140442,470.992096 309.287384,469.640472 306.113678,469.473694
	C297.914459,469.042816 291.705444,465.030731 286.659454,458.835907
	C283.024139,454.372864 281.533295,454.290619 276.585815,458.208405
	C277.041718,460.951721 279.219604,462.690765 281.075134,465.445404
M196.763885,587.577026
	C197.436310,586.553406 197.064835,585.632141 196.355392,584.869934
	C186.613480,574.403809 176.898087,563.912170 167.052856,553.543884
	C165.322235,551.721252 157.614792,551.745544 156.130524,553.174744
	C154.244247,554.991028 153.072723,562.559937 154.696716,564.238525
	C166.259171,576.189575 179.833847,584.675842 196.763885,587.577026
z"/>
</svg>