<svg width="500" height="300" xmlns="http://www.w3.org/2000/svg" xml:space="preserve" enable-background="new 0 0 1024 1024" version="1.1">

 <g>
  <title>Layer 1</title>
  <g id="svg_12">
   <path stroke="null" stroke-width="0" id="svg_1" d="m169.84162,109.08717c-0.21751,0.84533 -0.23681,1.46375 -0.49646,1.96428c-1.88972,3.64271 -0.68512,6.151 2.22898,8.99989c6.02643,5.89148 6.80452,15.69772 2.47055,22.53229c-4.57948,7.22171 -13.12906,10.57372 -21.6583,8.20353c-2.66393,-0.74027 -4.32653,-0.17246 -6.20648,1.72663c-8.3451,8.42997 -18.31416,14.43862 -29.89606,17.64777c-3.11281,0.86253 -4.30361,2.41368 -4.88359,5.3292c-1.46047,7.34185 -5.94554,12.21562 -13.43734,14.27588c-10.5562,2.90287 -21.28252,-3.18681 -23.38548,-13.68991c-0.79698,-3.98054 -2.37984,-5.97536 -6.51889,-7.21152c-10.52515,-3.14349 -19.6098,-8.90808 -27.45515,-16.41348c-1.70449,-1.6306 -3.08518,-2.18953 -5.5697,-1.48464c-9.13491,2.59179 -18.44872,-1.30433 -22.84967,-9.20553c-4.3137,-7.74458 -2.53545,-17.10949 4.63372,-23.34653c1.27706,-1.11101 1.56327,-1.99316 1.16976,-3.52137c-3.15423,-12.25007 -3.17347,-24.50369 0.3791,-36.67748c0.69684,-2.38788 -1.15875,-3.07505 -2.32216,-4.20186c-8.64534,-8.37306 -8.41257,-20.80409 0.75995,-28.1531c5.25758,-4.21235 11.37497,-5.13922 17.80784,-3.08484c2.24797,0.71788 3.61541,0.32936 5.33646,-1.2251c8.77735,-7.92755 18.83578,-13.75633 30.49464,-16.76596c1.96541,-0.50737 3.04672,-1.29622 3.5726,-3.56043c2.12813,-9.16276 9.31714,-14.98622 17.97579,-15.0625c10.32055,-0.09093 16.78586,4.76941 19.51844,14.77656c0.44768,1.63952 1.29517,2.55987 3.016,2.96757c12.67993,3.00422 23.70713,8.96824 32.9896,17.87152c1.96915,1.88874 3.78934,0.74013 5.61281,0.33681c9.22245,-2.04 19.21976,2.77745 22.38227,11.37395c2.69559,7.32731 1.43776,14.17256 -4.33935,19.87816c-1.30894,1.29275 -2.30313,2.39883 -1.7963,4.47272c2.50948,10.26876 2.69142,20.60472 0.46642,31.24748m-63.29489,18.13305c9.7569,-0.19089 19.51328,-0.42553 29.27114,-0.53761c2.06609,-0.02374 3.41366,-0.63604 4.04522,-2.60295c0.70063,-2.18206 -1.25431,-2.53922 -2.44498,-3.20465c-15.16735,-8.47656 -30.42887,-16.79513 -45.53513,-25.3726c-4.64464,-2.63727 -8.96236,-5.26743 -14.1483,-1.40612c-0.17229,0.12829 -0.45699,0.16524 -0.68737,0.16025c-2.10306,-0.04565 -2.7513,1.36816 -3.37131,2.97566c-3.0912,8.01453 -6.29242,15.98929 -9.33189,24.02205c-0.67839,1.79288 -1.83657,3.50366 -1.6715,5.96537c14.42676,0 28.79361,0 43.87413,0.0006m7.96076,32.97219c9.35928,-2.96984 17.39218,-8.00601 24.36374,-14.72239c1.473,-1.41907 2.13314,-2.64335 1.07831,-4.82031c-2.79753,-5.77329 -2.65081,-5.83423 -9.38566,-5.57424c-1.42914,0.05512 -2.86074,0.05916 -4.29132,0.06663c-18.12162,0.09471 -36.24329,0.17977 -54.36481,0.28862c-1.57231,0.00947 -3.24648,-0.28309 -4.81032,0.86915c5.04246,5.24308 10.01986,10.22426 14.74065,15.42567c1.80937,1.99359 3.4332,2.54686 6.13634,1.87306c7.19226,-1.79279 13.86706,-0.5131 18.93697,5.00937c2.21445,2.41215 4.23368,2.99863 7.5961,1.58444m25.23783,-68.50339c-4.36051,-5.51028 -8.69385,-11.0413 -13.10423,-16.51356c-0.89248,-1.10731 -1.60304,-2.63691 -3.68936,-2.01224c-11.54238,3.45591 -23.10568,6.84565 -35.34196,10.45889c2.67279,1.5362 4.68691,2.72987 6.73517,3.86528c15.32061,8.49268 30.92555,16.54475 45.83778,25.66801c6.03902,3.6946 10.71951,1.98454 16.63079,0.19234c-5.76305,-7.30777 -11.26394,-14.28315 -17.06819,-21.65872m-61.35025,-54.38587c-1.80492,-3.42034 -4.45113,-3.25812 -7.76032,-2.13657c-8.35104,2.83027 -15.69683,7.16379 -22.27894,12.87318c-2.13779,1.85431 -2.99872,3.55282 -1.62007,6.27261c0.93133,1.83728 1.24856,3.98209 1.04547,6.10743c-0.14889,1.55818 0.46337,2.60848 1.94582,3.34757c5.40847,2.69654 10.74465,5.53101 16.1689,8.19642c3.07521,1.51114 7.84062,-0.57494 8.83281,-3.7826c2.19318,-7.09046 4.10503,-14.27215 6.56905,-21.27097c1.37808,-3.91429 1.1732,-6.91123 -2.90271,-9.60708m-26.89001,77.70459c0.8405,2.58495 1.68099,5.16991 2.7931,8.5902c3.8134,-9.68911 7.23347,-18.55845 10.81,-27.36769c1.23688,-3.04656 1.94419,-5.83421 -0.35984,-8.75307c-1.01115,-1.28097 -1.17036,-3.02043 -1.01659,-4.67388c0.17226,-1.85221 -0.62052,-2.97555 -2.35522,-3.81855c-4.15102,-2.01722 -8.15925,-4.31648 -12.33981,-6.26972c-1.3826,-0.64598 -2.89489,-2.90318 -4.62537,-0.85921c-1.76528,2.08508 -4.94506,3.18713 -3.56993,7.34731c3.85,11.64744 7.06988,23.49192 10.66367,35.80461m59.72947,-59.59342c-1.84844,-2.26829 -3.90437,-4.40754 -5.49939,-6.83343c-2.78302,-4.23265 -5.72118,-7.18447 -11.64074,-5.19213c-2.10863,0.70971 -3.54527,1.03696 -4.18942,3.31948c-2.13839,7.57734 -4.45901,15.10614 -6.72205,22.65005c-0.53491,1.78309 -1.107,3.3756 0.68801,5.04567c1.71861,1.59897 3.28763,0.87342 4.92673,0.38892c7.84611,-2.31923 15.67642,-4.68919 23.50466,-7.06511c2.11257,-0.64116 4.41903,-0.8259 6.38346,-2.38773c-1.86984,-3.61888 -4.84986,-6.33906 -7.45126,-9.92572m13.50659,-17.27811c-3.7351,-1.82522 -7.62369,-3.26627 -11.67823,-4.24448c-1.72545,-0.4163 -3.24687,-0.14414 -4.33435,1.52741c-0.88081,1.35391 -0.97553,2.48101 0.07771,3.77884c5.89986,7.2701 11.76615,14.566 17.63339,21.86106c0.97674,1.21442 2.17839,1.751 3.7527,1.36293c4.22562,-1.04162 8.84652,-1.6002 8.76141,-7.48805c-0.01249,-0.86251 0.50386,-1.79294 0.96379,-2.58909c1.08198,-1.87297 0.43231,-3.19168 -1.05093,-4.55255c-4.10511,-3.76646 -8.74197,-6.77337 -14.12549,-9.65607m-80.59358,81.17865c-1.10498,-3.65213 -2.22308,-7.30062 -3.31231,-10.95717c-2.57557,-8.64627 -5.12312,-17.30047 -7.7194,-25.94083c-0.41548,-1.38274 -0.49873,-3.18392 -2.56094,-3.29287c-2.26847,-0.11987 -2.1703,1.84269 -2.52646,3.17592c-2.58777,9.68669 -2.39272,19.4102 -0.21856,29.13944c0.35576,1.59201 1.13714,2.81263 2.96983,2.9957c4.92918,0.49229 9.06673,2.53722 12.57844,5.90193c1.08837,1.04277 1.01435,0.13535 0.78939,-1.02212m93.58071,-43.70983c7.33382,9.31858 14.66762,18.63715 22.32631,28.36852c1.71527,-7.78199 1.02914,-14.91526 -0.34921,-22.08206c-0.46681,-2.42708 -1.79259,-3.36754 -4.06322,-3.48358c-5.86615,-0.2998 -10.30841,-3.0914 -13.91857,-7.40175c-2.60089,-3.10538 -3.66752,-3.16261 -7.2072,-0.43661c0.32617,1.90879 1.88434,3.11881 3.21189,5.03549m-60.32067,84.97898c0.48109,-0.71223 0.21532,-1.35325 -0.29226,-1.8836c-6.96987,-7.28231 -13.92077,-14.58237 -20.96456,-21.79661c-1.23818,-1.26818 -6.75249,-1.25128 -7.81441,-0.25685c-1.34954,1.26377 -2.18771,6.53021 -1.02582,7.69816c8.27238,8.31552 17.98441,14.22025 30.09704,16.2389z" fill="#0A3D62000"/>
   <path id="svg_2" d="m87.42265,264.11204c-10.32717,-18.06549 -20.34243,-35.84753 -30.68057,-54.20294c0,2.06952 0.00028,3.6546 0,5.23969c-0.00403,22.32367 -0.10543,44.64813 0.07227,66.97033c0.03433,4.31061 -1.14038,6.06122 -5.6304,5.71241c-4.47119,-0.3473 -9.00589,-0.31342 -13.4838,-0.0138c-4.39181,0.29388 -5.75586,-1.35132 -5.7272,-5.72253c0.16818,-25.65448 0.08536,-51.31061 0.08587,-76.96619c0.00022,-10.49548 0.13834,-20.99377 -0.07443,-31.48498c-0.08413,-4.14765 1.38071,-5.64673 5.50363,-5.41889c4.98273,0.27539 10.01972,0.39844 14.98224,-0.0188c5.18558,-0.43591 8.0864,1.48212 10.54608,6.11884c9.05002,17.06042 18.54428,33.88537 27.8877,50.78985c0.95514,1.72803 2.01947,3.39563 3.44418,5.77887c3.77024,-6.72247 7.25931,-12.88653 10.69428,-19.0805c7.26834,-13.10627 14.59445,-26.18189 21.69592,-39.37824c1.64661,-3.05981 3.65753,-4.32946 7.09494,-4.21576c6.15756,0.20392 12.32782,0.16321 18.48941,0.04749c3.15869,-0.05939 4.44501,1.10583 4.43903,4.3703c-0.06763,36.98389 -0.07099,73.96796 0.00378,110.95178c0.00684,3.37659 -1.43796,4.30799 -4.52133,4.20685c-4.65961,-0.15283 -9.34708,-0.3009 -13.98731,0.03631c-4.73248,0.34394 -6.35165,-1.24517 -6.30517,-6.14416c0.22446,-23.65063 0.10104,-47.3045 0.10104,-72.46442c-3.84182,6.76233 -7.06076,12.33966 -10.1951,17.96424c-5.91522,10.6148 -12.02432,21.13287 -17.55319,31.94647c-2.3201,4.53778 -5.18243,6.48816 -10.12961,5.72528c-2.12024,-0.32696 -4.29196,-0.31964 -6.75226,-0.7475z" fill="#0A3D62000"/>
   <path id="svg_4" d="m354.32671,143.2365c-5.59912,13.35434 -15.08551,21.81934 -28.80341,25.13739c-13.54193,3.27545 -25.69879,0.39557 -35.56109,-9.53961c-0.79102,0.59991 -1.22492,0.75644 -1.26953,0.98791c-1.48096,7.69013 -1.47553,7.69123 -9.8266,7.68683c-14.31885,-0.00745 -14.3197,-0.00745 -14.3194,-14.38067c0.00079,-34.96668 0.08759,-69.93381 -0.09436,-104.89951c-0.02533,-4.86527 1.06354,-6.97708 6.33038,-6.55518c5.5896,0.44773 11.24298,0.10059 17.37488,0.10059c0,15.96478 0,31.37021 0,47.07843c0.98847,-0.21603 1.5589,-0.16421 1.82513,-0.4241c19.3426,-18.88025 58.04914,-9.64328 66.1518,22.64261c2.6969,10.74624 2.30011,21.37652 -1.8078,32.16531m-61.95337,-34.08652c-4.39471,6.05213 -4.93024,12.9007 -4.16449,20.03104c0.99707,9.28473 8.31171,17.71051 16.94269,19.47494c10.47058,2.14051 20.34827,-2.18042 25.18237,-11.01587c6.29883,-11.51242 3.17487,-26.56363 -6.97113,-33.58664c-9.54004,-6.60357 -22.51758,-4.69045 -30.98944,5.09653z" fill="#0A3D62000"/>
   <path id="svg_5" d="m458.58675,235.70653c0.01166,15.79602 -0.10932,31.11981 0.09967,46.43908c0.06012,4.40717 -1.46491,5.98273 -5.80329,5.67603c-4.14306,-0.29291 -8.34075,-0.30994 -12.48162,-0.00366c-4.67298,0.34558 -6.44013,-1.17066 -6.34967,-6.12989c0.26727,-14.65014 0.18347,-29.3114 -0.05048,-43.96374c-0.10693,-6.69715 -2.66302,-12.61298 -9.06451,-15.52533c-6.56189,-2.98529 -13.46973,-2.90949 -19.45288,1.55139c-6.51209,4.85516 -7.51307,12.35785 -7.67139,19.74316c-0.27466,12.81806 -0.26782,25.65039 0.01629,38.46796c0.10474,4.72339 -1.61224,6.16199 -6.06457,5.86127c-4.31049,-0.29132 -8.66809,-0.26636 -12.98279,-0.00861c-4.17731,0.24957 -5.50683,-1.41919 -5.44586,-5.5152c0.19092,-12.82098 0.06305,-25.64666 0.06274,-38.47052c-0.00055,-24.64856 -0.01635,-49.29712 0.01459,-73.94568c0.00842,-6.72265 0.07446,-6.73169 6.57373,-6.7553c4.33008,-0.01575 8.67047,0.18279 12.98743,-0.05512c3.80328,-0.20959 4.85321,1.4079 4.81177,4.99646c-0.15009,12.98877 -0.07636,25.98035 -0.03315,38.9707c0.00531,1.59796 -0.46258,3.28095 0.61622,5.15363c9.35766,-11.7594 21.79077,-14.09509 35.44067,-11.1789c13.39874,2.86261 21.98059,12.76886 23.85022,26.29957c0.36365,2.63171 0.61597,5.27874 0.92688,8.3927z" fill="#0A3D62000"/>
   <path id="svg_6" d="m215.389,251.65794c-4.16401,0.01343 -7.83411,0.15167 -11.49311,0.00708c-4.27331,-0.16882 -4.81146,1.85748 -3.54297,5.31409c1.68274,4.58545 4.80353,7.96582 8.85047,10.49347c8.82281,5.51025 20.90197,3.57532 27.38788,-4.33844c0.75225,-0.91791 1.35986,-1.88904 2.66497,-2.0387c7.10352,-0.81451 14.19165,-0.82959 21.90235,0.02796c-2.35157,10.08258 -7.84937,17.31768 -16.1214,22.18768c-22.27954,13.11645 -63.69385,6.14239 -69.6098,-31.66956c-2.88251,-18.42437 2.68859,-34.80725 19.08551,-45.1214c16.53338,-10.40002 34.06646,-10.61731 50.94262,-0.20849c12.69782,7.83185 20.89606,27.84985 18.25672,42.43329c-0.63843,3.52795 -3.15357,2.87805 -5.34101,2.88641c-14.16095,0.05438 -28.32226,0.02698 -42.98223,0.02661m22.64941,-24.2345c-4.64874,-7.99951 -11.72461,-10.81347 -20.67426,-9.7926c-8.04589,0.91785 -13.29071,5.40637 -16.65722,12.54639c-1.74286,3.69653 -0.78608,5.14984 3.32849,5.10077c9.9768,-0.11914 19.95611,-0.01911 29.93432,-0.04022c6.90216,-0.01459 7.1399,-0.42518 4.06867,-7.81434z" fill="#0A3D62000"/>
   <path id="svg_7" d="m350.06355,246.90343c8.49097,12.82659 5.51179,28.11328 -6.76422,36.21191c-13.98974,9.22912 -40.71331,8.72485 -54.22949,-1.02338c-6.72168,-4.84784 -10.37384,-12.49042 -9.55993,-20.83575c6.15496,0 12.40258,-0.01581 18.65008,0.01306c1.28607,0.00592 2.06561,0.70758 2.57489,1.95148c2.42004,5.91089 7.42297,7.65851 13.23352,8.03973c4.1626,0.27301 8.32623,0.46289 12.35761,-0.91235c3.21277,-1.09589 5.53265,-2.95447 5.71295,-6.71589c0.19073,-3.98052 -2.03083,-6.28466 -5.39215,-7.51062c-7.07367,-2.57995 -14.7027,-2.54492 -21.94202,-4.38073c-7.16467,-1.81678 -14.26257,-3.99719 -18.88263,-10.29645c-8.56775,-11.68207 -5.56299,-28.55383 7.02747,-35.72443c15.94384,-9.08044 32.49481,-9.02514 48.34503,0.36115c7.21527,4.27276 12.02454,10.80511 11.35223,20.69897c-6.43097,0 -12.54449,-0.04883 -18.65655,0.0268c-2.11176,0.02618 -2.88965,-1.34809 -3.5788,-2.88867c-3.58765,-8.02045 -17.00574,-8.98639 -24.24426,-3.71711c-4.15265,3.02295 -3.2403,9.51404 1.56097,11.96228c5.12299,2.61249 10.8371,3.00562 16.38892,3.99323c9.33624,1.66089 18.86163,2.89471 26.04638,10.74677z" fill="#0A3D62000"/>
   <path id="svg_8" d="m414.56621,108.01494c0.13141,-12.94369 5.88489,-21.26217 17.69904,-25.36828c13.07629,-4.54474 26.15362,-4.46088 38.83001,1.4251c7.62177,3.53901 12.77356,9.42984 14.78626,17.7978c0.90503,3.76269 -0.12927,5.7612 -4.37952,5.52377c-3.32098,-0.18552 -6.66803,-0.17676 -9.99011,-0.00092c-4.05866,0.21488 -6.85809,-0.45672 -9.10352,-4.79144c-3.54162,-6.83688 -19.1792,-7.2402 -24.01641,-1.20279c-3.20838,4.00424 -2.12952,8.64499 2.77899,11.15344c5.43219,2.7761 11.55145,2.89499 17.37292,4.15802c3.39972,0.73761 6.87976,1.13947 10.24225,2.00779c12.34351,3.18759 18.33142,9.78732 19.35986,21.0903c0.92872,10.20678 -5.03534,21.10287 -15.20007,25.36444c-15.78332,6.61712 -31.80975,6.69409 -47.18988,-1.44449c-7.29407,-3.85971 -11.53705,-10.20981 -12.44989,-18.73773c-0.3595,-3.358 0.80548,-4.17899 3.7113,-4.10953c2.8299,0.06763 5.66865,0.11313 8.49329,-0.03174c4.58435,-0.23523 8.08038,0.04117 10.84107,5.1926c3.71594,6.93408 21.24444,7.93521 26.83618,2.40155c4.17163,-4.12824 2.64886,-9.78296 -3.39057,-12.24872c-5.92382,-2.41861 -12.35949,-2.39102 -18.52832,-3.65729c-4.90655,-1.00714 -9.73004,-2.15957 -14.19989,-4.49679c-7.90875,-4.13544 -12.10663,-10.63752 -12.50299,-20.02509z" fill="#0A3D62000"/>
   <path id="svg_9" d="m249.89806,101.66136c-3.80414,2.80158 -7.86639,0.82523 -11.76501,1.49125c-11.50983,1.96618 -18.53083,9.16806 -18.86152,20.85455c-0.33416,11.8082 -0.29272,23.62704 -0.4104,35.44128c-0.0802,8.051 -0.07605,8.0571 -8.33178,8.05295c-4.1604,-0.00207 -8.32087,-0.04864 -12.48121,-0.03961c-2.16607,0.0047 -3.46429,-0.78604 -3.46295,-3.18036c0.01587,-27.26907 0.01007,-54.53815 0.01007,-82.16437c7.36219,-1.54986 14.47065,-0.92672 21.54834,-0.73526c2.06989,0.056 2.70227,1.52426 2.89069,3.39283c0.19281,1.91159 -0.44891,3.94772 0.9046,6.13812c5.99707,-7.66199 14.17224,-10.13022 23.2757,-10.61078c5.94256,-0.31369 7.00958,0.52515 7.00165,6.45248c-0.00641,4.82425 -0.11536,9.64838 -0.31818,14.90692z" fill="#0A3D62000"/>
   <path stroke="null" id="svg_10" d="m393.24332,169.25469c-5.2794,0.00201 -10.0647,-0.125 -14.84016,0.03271c-3.38177,0.11164 -4.91977,-0.91061 -4.90476,-4.51315c0.10739,-25.82742 0.08844,-51.65549 0.01651,-77.48309c-0.00819,-2.95734 1.10424,-4.32087 4.13432,-4.30118c5.29266,0.03433 10.58607,0.02377 15.87867,-0.01996c2.87428,-0.02371 4.33941,0.98004 4.3304,4.09519c-0.07525,25.9942 -0.06568,51.98879 -0.00907,77.98309c0.00631,2.88638 -0.94369,4.46805 -4.60591,4.20639z" fill="#0A3D62000"/>
   <path id="svg_11" d="m370.5858,55.05947c1.30292,-8.66184 6.01789,-13.50968 13.34919,-14.14969c6.48053,-0.56571 12.41357,3.77896 14.46569,10.59302c2.08533,6.92404 -1.71032,14.30618 -8.64984,16.82342c-6.99035,2.53565 -14.71557,-0.52743 -17.58099,-7.12305c-0.78095,-1.79739 -1.06702,-3.80978 -1.58405,-6.1437z" fill="#0A3D62000"/>
  </g>
 </g>
</svg>